/* XPM */
static char *_af2e2fea63741489ad8c1ee026bf6567m6lFTlvtgquPZCu[] = {
/* columns rows colors chars-per-pixel */
"44 44 137 2 ",
"   c #9F796E",
".  c #A27A63",
"X  c #988370",
"o  c #A98A6D",
"O  c #B28463",
"+  c #B58668",
"@  c #A18B74",
"#  c #A68F7D",
"$  c #BE8F76",
"%  c #BE8F78",
"&  c #BF9175",
"*  c #B6967F",
"=  c #BE9E7F",
"-  c #C18567",
";  c #C28569",
":  c #CB966D",
">  c #CB986D",
",  c #D09B6F",
"<  c #C18F76",
"1  c #CC8F72",
"2  c #C18F78",
"3  c #C09177",
"4  c #CC9274",
"5  c #CB9A75",
"6  c #C19079",
"7  c #CE9778",
"8  c #C39E7E",
"9  c #CC9A79",
"0  c #D39E75",
"q  c #D19B7C",
"w  c #DAA06E",
"e  c #CCA176",
"r  c #C1A07F",
"t  c #CBA37D",
"y  c #D2A276",
"u  c #D3A37B",
"i  c #E4A56F",
"p  c #E6A86F",
"a  c #E4A672",
"s  c #E8A672",
"d  c #E5AA75",
"f  c #E6B27E",
"g  c #A49680",
"h  c #B79481",
"j  c #B79884",
"k  c #BE9F81",
"l  c #B2A28B",
"z  c #B7A98E",
"x  c #BAA98E",
"c  c #B7AB91",
"v  c #B9AA91",
"b  c #BCB098",
"n  c #C29E82",
"m  c #C99D83",
"M  c #C2A182",
"N  c #CBA683",
"B  c #CCAB84",
"V  c #CCA68A",
"C  c #CBAC8A",
"Z  c #D3A482",
"A  c #D2A983",
"S  c #D3A58A",
"D  c #D4A98A",
"F  c #DBAD89",
"G  c #CCB28F",
"H  c #D4B187",
"J  c #D4B38D",
"K  c #DAB48E",
"L  c #C7B392",
"P  c #CDB392",
"I  c #CEB995",
"U  c #CCB798",
"Y  c #CEB998",
"T  c #D2B593",
"R  c #D9B695",
"E  c #D3B996",
"W  c #DEB894",
"Q  c #D2B798",
"!  c #DAB598",
"~  c #D4BC9A",
"^  c #D8BE9B",
"/  c #E6B281",
"(  c #E8B381",
")  c #E6B38C",
"_  c #E8B38D",
"`  c #E6BB89",
"'  c #E9BA8C",
"]  c #E6B695",
"[  c #E8B695",
"{  c #E8B796",
"}  c #EBB696",
"|  c #E6B992",
" . c #E6B897",
".. c #E8B894",
"X. c #E9B995",
"o. c #E8BB94",
"O. c #E7B698",
"+. c #E6B799",
"@. c #E9B699",
"#. c #E9B799",
"$. c #ECB798",
"%. c #E6BE9B",
"&. c #E7BE9E",
"*. c #E9B898",
"=. c #E9BF99",
"-. c #E9BD9B",
";. c #E9BE9B",
":. c #EABD9D",
">. c #D6C099",
",. c #D5C19C",
"<. c #DAC39D",
"1. c #DBC39F",
"2. c #E7C099",
"3. c #EAC49D",
"4. c #DAC3A1",
"5. c #DFCDA7",
"6. c #E7C5A0",
"7. c #EAC4A0",
"8. c #E0CAA3",
"9. c #E1CBA4",
"0. c #E1CBA6",
"q. c #E7D5A7",
"w. c #EAD3A7",
"e. c #EAD4A7",
"r. c #E7D4A9",
"t. c #E7D4AA",
"y. c #EBD3AA",
"u. c #ECD3AA",
"i. c #ECD3AB",
"p. c #E8D5AA",
"a. c #E8D5AB",
"s. c #E8D7AB",
"d. c #ECD5AB",
"f. c #EAD2AC",
"g. c #EAD4AD",
"h. c #ECD5AC",
"j. c #ECD4B0",
/* pixels */
"c p.p.u.B : ..p.p.p.d.u.I a _ E f.p.u.I a @.I p.p.i.G 4 { { G u.;...{ { O.J j.d.d.w.p.e.",
"x p.e./ u _ { w.p.p.p.d.I a _ Y p.u.w.Y a ..I y.p.y.L 4 { ^ w.y.d.p.y.{ ~ f.p.e.d.d.p.p.",
"@ N J 5 F R Q p.E A B N t 5 | E p.d.J t 0 { I d.y.h.L 4  .R ~ y.p.d.g.E 9.d.u.J B B B B ",
"+ a a { ..~ g.u.H s d s , { ;.^ y.d./ 0 %.{ ~ y.p.h.G 4 {  .J f.p.p.g.p.p.p.p./ a a a a ",
"h { { ..E p.p.( 5 ..@.......p.N i a ) T y.{ { :.p.p.G 4 { { G f.t.B a a a a s )  .{ | { ",
"h Q p.g.J / f _ >.d.p.d.h.d.` u ) ) u.u.p.y.p.u.9 9 m @. .0 d f f u _ ) ) ) ) y.p.y.d.p.",
"# ~ u.T N : : _ I p.I I I G u B P P p.9.P L P Q 2 2 m { { 5 : : 4 V G T G G P y.<.R Y d.",
"l p.y.a 5 { | ;.~ d.i a a p ..~ p.f.f.E 4 4 4 q ] @.O.{ { ..+.] _ ~ y.p.f.u.p.e.~ ;.%.p.",
"C t.t.a 5 ] { p.N d { |  .{ u.u.h.; ; < { | { @.@...{ { $.{ | { s a a a a B p.w.d.g.d.d.",
"o B H 5 T E I u.N f I Q Y E t.G V m m D { { { { { { Z : : : : : y 5 5 4 4 t B B B B B B ",
"O a d :.>.p.p.e.J ' y.p.u.h.f.V q | { | ) ) ) _ _ _ 0 a a a a a ..2.%.2.:.u d d a a a a ",
"*  .;.p.B a a i I d.p.p.P ; + m { { O.9 a a a a a a : { ] { { @.y.y.g.y.e.Y O. .{ { { { ",
"v y.p./ u ) ) p.d.p.y.V m { +.....{ a F p.u.u.p.y.h.~ a { +...{ w.u.u.p.p.y.e.p.p.u.u.y.",
"v y.y.a 9 ] P g.~ P G n S G ..{ { { a B h.Y 9.p.p.p.<.H 7 5 5 5 ~ Y ^ p.g.9.E I 9.h.p.h.",
"x y.w.a 5 G d.y.V 4 4 S Q p.;._ _ _ f J w.2.^ u.h.w.y.p./ d a a / { ;.d.e.>.:.;.^ y.y.p.",
"h { ) a 5 L e.5 m  . .| { { { : a a h.p.w.d.p.p.y.y.u.u.r.P ..+.i 5  .{ { P f.p.T ..{ { ",
". : 0 5 D 4.h.9 m ] ..0 : : : C P T p.w.f.u.Y n = r Y u.u.<.Y Y u : : : u W Y G t : 4 : ",
". : 0 P L L P 9 D { 5 t t B B <.w.p.d.9.L L n % % & n L P 9.y.y.~ t 4 > 5 5 5 5 : : : : ",
"* ....p.l ; ; +.{ ) a I p.p.y.y.d.p.p.G ; ; 9 {  . .m - ; P y.w.p.P { { : a i a 5 $.| { ",
"* R w.q D $.{ { { _ a E ~ 3.w.p.u.9 9 m {  . .:.p.y.~ { { M V y.u.u.d.d.R ) ) ) ^ p.w.u.",
"# <.p.; m @...{ 5 u Y 3.E { p.I V n m D *.I Y ~ p.d.0.~ { 2 n g.E <.p.p.<.Y Q E 9.y.d.w.",
"z s.p.; n ..:.*.: ( y.p.,.:.e.M 4 { :.;.7.u.y.u.d.p.p.g.$.& M p.6.,.d.d.t.e.e.t.y.p.d.p.",
"h G p.; m C p.;.: / p.g.u.y.u.M 4 { p.d.d.d.B i i i B p...6 n p.f.p.p.y.h.p.y.g.P @.{ p.",
"g <.d.; m T p.;.: f p.d.p.p.C M S { u.p.p.N t 5 5 9 e K E V M 8 n n 8 n 8 Y t.g.<.E Y y.",
"v y.p.; m ! U @.: / d.p.d.y.9 m ..L e.5.E : V P J L t / p.E C 6 3 $ 6 < 3 n I y.<.^ p.f.",
"x y.d.; m { ....: ( u.p.p.w.5 m :.e.w.E a | I u.p.d.I / y.d.Q  .*.{ ..{ ..m ; h.P ;.p.y.",
"v p.e.; m  .@...> f u.~ E d.5 m ..;.e.P a O.I d.%.p.Y f y.d.w.y.p.p.y.h.R m ; f.d.q.w.p.",
"X n N n F u 4 : C ~ u.<.<.h.7 m *.Y y.Q a { E p.{ u.E y B B E p.u.u.p.p.<.P m N k n = n ",
". 4 q { | u / / ^ e.d.y.p.t.7 m :.y.p.T s  .E p...y.>...a a A g.p.r.f.p.y.^ :.u 4 4 4 4 ",
"h { { ..: A g.h.p.p.p.T P f.7 m 3.p.t.E a ..I p.{ p.h.p.{ { > d a a a a Y t.t.;. .{ @.{ ",
"+ 0 { { > B p.3.^ y.g.p.u.f.5 8 ;.p.' u | p.u.f.p.g.u.y.u.u.^ | ) ) ) ) y K y.;.{ { *. .",
". 5 { ..: B d.~ 4.p.L G G L m 5 A y.f : ;.u.p.p.Q E ~ Y U U G 5 5 5 5 5 t C E *.@.{ | { ",
"2 ) ) ) u K p.p.d.p.1 4 4 4 ..u ' p./ : :.p.y.w.) ) _ _ ) ) u / / f ( ( ^ ^  ...) ) ) ) ",
"O a a a Q p.t.p.8 4 {  .{  .g.g.p.p./ > ;.p.T _ a a a i i a t p.p.p.y.y.P .. .{ : a a i ",
"# T I Y 9.d.p.f.n 4 { T Y Y J B B A u B <.y.B u I Q I I T I P P P G P P 9 : : : w f I I ",
"l y.p.u.p.y.u.f.V t ;.^ y.p./ d a a ..~ p.d.B / w.p.y.w.d.p.E _ _ _ _ ) y / / ( f ' t.p.",
"b g.g.g.M ; ; ; m 2.e.d.I a _  .{ { y.p.p.d.B ( p.d.I i a a a a a a a a T y.y.p.p.y.u.p.",
". 9 9 9 S  .O.{ ^ p.e.d.G s _ ~ y.e.` / ( ( u ..e.' u ) _ ) T p.f.f.f.j.p.w.g.A 9 9 5 9 ",
"  & & 6 C P G P ,.p.T G C : R <.p.T u : : : C E p.f : :.P G P G G L L L G L L m < 2 $ < ",
"j %.:.2.>.t.d.y.h.p.a d y ..p.y.p.a ) ;.:._ E y.u.` u 3.p.d.Q 4 1 4 1 4 4 4 4 @.:.:.:.%.",
"x d.p.e.p.I i a d a { { P p.g.p.p.a ) P w.i a a a y.y.u.; ; <  .{ | $.{ { { { { I p.u.y.",
"v e.d.d.E t 9 4 5 Z Q E P A B B F 7 ~ G J 5 5 Z P y.<.V m 9 D { ~ R { { { R E I 9.g.P p.",
"v d.d.p.B e T T T E d.<.D : > : u G g.J d T G ~ t.w.L 4 O.O.W T y.~ R ] { Q Q p.p.y.P y.",
"x d.s.s.B t p.p.d.p.y.B > { { { ;.p.p.I / u.u.u.p.p.L 4  . .P t.u.w.u.{ { $. .u.h.d.y.e."
};
