/* XPM */
static char *_640207fe4e54126f4f0c46d7549403a9WNVbuGLTCBWPMhM[] = {
/* columns rows colors chars-per-pixel */
"44 44 86 1 ",
"  c #12474F",
". c #18474F",
"X c #154A4E",
"o c #184B4C",
"O c #154653",
"+ c #184655",
"@ c #154A54",
"# c #194C54",
"$ c #154C59",
"% c #184B5A",
"& c #175255",
"* c #1B5355",
"= c #1E5B55",
"- c #17555A",
"; c #1A555A",
": c #175B5A",
"> c #1C5B5B",
", c #205C54",
"< c #215C56",
"1 c #205F57",
"2 c #235F57",
"3 c #205658",
"4 c #215E5A",
"5 c #225F5A",
"6 c #205D5E",
"7 c #215F5E",
"8 c #1E6056",
"9 c #1B605B",
"0 c #1E605B",
"q c #1B605D",
"w c #1E605C",
"e c #236154",
"r c #226055",
"t c #246056",
"y c #226554",
"u c #226456",
"i c #266656",
"p c #236853",
"a c #266A55",
"s c #296D56",
"d c #2B6F56",
"f c #226158",
"g c #25625A",
"h c #24635A",
"j c #256759",
"k c #20635C",
"l c #20625E",
"z c #20665C",
"x c #22655E",
"c c #24655D",
"v c #246859",
"b c #246C58",
"n c #276F59",
"m c #246F5A",
"M c #246B5D",
"N c #246E5D",
"B c #266F5C",
"V c #2A6E59",
"C c #286D5B",
"Z c #286F5D",
"A c #296D5E",
"S c #2A7056",
"D c #25705B",
"F c #25705C",
"G c #26705D",
"H c #26715D",
"J c #27705F",
"K c #29705A",
"L c #2C7D5D",
"P c #2E7D5E",
"I c #317D5E",
"U c #1A5960",
"Y c #266E60",
"T c #276F61",
"R c #286E63",
"E c #257160",
"W c #2C7A60",
"Q c #317E61",
"! c #33845E",
"~ c #33855F",
"^ c #368C5F",
"/ c #38895E",
"( c #338461",
") c #368B62",
"_ c #358C62",
"` c #398A61",
/* pixels */
"$$$$$$$$@%%$*h$$O;$$$H$$$;>%%O$$$*BYw>>U$$$$",
";O$$$#w$@%$k@$$*@$$%>H=>;>:=c$$>gBy=>>:$$$$Y",
"O@O$*@@$@*OM*#@@O@&@ODO$>;>==#;>1h5=>>;$$O@#",
"$#&$1$$$$>>m57>$O5Z@$HO$=:>7>>>=72h>>>;$$#x$",
"HEZm$$>==U>><M>:=J)yH>>,>=12>=>UB1=:>>>H$O>>",
"$$OCOO;$$>>>6Y:Hy!K8==Jt::5hEZHYB=U>:yM#;=Z:",
"+$@mO$;O$,>>>>>Yvm**>>xh>;115BaaB=>>U*&#;fZ:",
">@@kY>;=>>:-->>Hvf$@;;;:f>hu:HZ(H==7*@$QZBB>",
"=>O$xO$:::>%@wJ=O$=+$$>=B>==YBs!Z,,B$,Q>m1==",
":>&%M@%O%,>$*Ur>-%O@#*>=5>5=1Zar1>>=$,(>m7U>",
">:>=R%$$O>7U>:->:-$O=Y>>>Ugg>PyE,:>>$1P>Jt>>",
">>>>:fB:>=Bf=;$;@$:>-$U=B=:,BZ1>>;>:QuCvw=:=",
":=5Z$#kBZ*$$$$$j1;+;Z;>,>>:7>B1=1>=Im1kZ>>>>",
";:15#*fB=@$$$OO5,-$#h>1,7>>:>E=;>;=1215Bf=:>",
"7=>:mBmx%$$$$>>>--$$>>HSBU>==H>=>uj=>2ZmCp>k",
"Z1:3:>;$=h=HmB>>+%>,::mRHE=>>>hE:fj)/yBYBHRJ",
",11>15;@*1tBHBg=#1=>>>51hZy5>>=5=5atut=,mvtJ",
",1==Hff:*1ZZBHEt1H***:>>=BBrU>,:;1,*vt1$1trH",
"Z,1HBEY=pCBmBBJDBB)/Q=>:7BZ2>>>>)#%$vYx$;1mJ",
"(hBBc1Y=hZBB5kJmZHHHJQ:>>!jBY>fH$$$$BO%;$@>7",
"3uCDtrfrCu1Zhg5Zj5BYYpryhyMZHf*##O@@m#%>@&;O",
">1Jmm1wHm1:CZZ>mfxBYBZI!IBBHB!%$>O%>R1>:>;;$",
":=*`J11/u7=R,;>>1m>=>ZYZY>=*_Bf=;:1Z=>>1=@$:",
">>=y$OO/21:17>>U1=>:=O@*MOO#;5=>==1Hrht1>;#;",
"U==5$$$S5*==>>>:>>==*O.&=$O#=>>>1=,Z*3=5;1,>",
">U>>O$$Bdy>Yf>>U>kH=>:H5;$%1m>:kZ1,M$$$,ICE:",
">;@$;@$(ZmYk>=:>>>>yZD$%$c==>;>>RB*$$@,Z7,wH",
":@$%O@@_rgB;>>>>:>:rMO&X$=o.fY>>=y*$@X$R=>==",
">O$$$$*(>=B7>:>:>=Y5c%7;$*.$H>>>7y&$;O%R=>>:",
">=@$;O$m<>>=;>>>>UB=::$$$$*BHwy(BZrU$$$>::U>",
"H#@;=@%(==>>7=:>5B;#%$;@$;>fRI=>>k>:x*;>:>;%",
"5*#O;##h#%=:-65=&*@$O$#@$:==Z(*>@*1=r=:>>=*%",
">t*%*yP>OO>>>>Hw&$%$-$%O>>>hB!==$*BYk>>>;;>&",
";>#%:hB>>=Bk>>:HH0$%$;>:>>2BB!yY=:>::=>>>%$$",
"U:;*$*R:=*#:>>>w#o*O$@.#::rMBsf=>>>>:r=O+@$@",
">==Z@*x5=*$-;;:;$$v#%$$O;=1tWB=;>>7;0=8$$$O>",
";=>>R@$C@O>>@$:$$$$&x$*#$>++>BO$R==>EO$$$$=>",
">U:>$#;71&$;O$$$$O$$$x$$*>O@BfO$>=@$>O$$$+:$",
">=*@@#>:=#@>OO$O$$$O@*O#5>@#&=OO:f#O=@@$OO$O",
">=;%c1=:>1Yk>;$;$$$#&$5Mf7h*$;:7;wh;BRx$>O$>",
",O@B=>:1>>>m+$$$$$>.$Z$$$mB#$$@-$.@;k5=H=>:>",
"5##O5,6:@@>##@#$#$.@;O#O@1h*$O@#@O#*==>=$OOO",
"&&X@&*1@@OX@*1@@@O$#=@>>=U=*#@$$###rw>*@O$$$",
"%@#%%*h$@#$;1cO;O$$O0B>>>:>,/:+%$*t>>::$$$$$"
};
