/* XPM */
static char *_e1f59dafb514ca3dc68b48411bf5fecHO9dwChXtowRDBum[] = {
/* columns rows colors chars-per-pixel */
"37 37 122 2 ",
"   c #070D1E",
".  c #0A0D1E",
"X  c #100F1F",
"o  c #0C111F",
"O  c #12121E",
"+  c #17181D",
"@  c #070D20",
"#  c #0A0D20",
"$  c #0E1121",
"%  c #151423",
"&  c #181523",
"*  c #2A1C22",
"=  c #361C22",
"-  c #3C1E22",
";  c #282222",
":  c #362B23",
">  c #412226",
",  c #422329",
"<  c #502225",
"1  c #592824",
"2  c #552928",
"3  c #463524",
"4  c #4C3726",
"5  c #4B3827",
"6  c #523C27",
"7  c #513B28",
"8  c #622A2B",
"9  c #73332A",
"0  c #79562B",
"q  c #80332C",
"w  c #933A2C",
"e  c #A53E2D",
"r  c #835E2C",
"t  c #AA412D",
"y  c #B0412D",
"u  c #BE472F",
"i  c #BE492F",
"p  c #B7502D",
"a  c #BE5C2F",
"s  c #AA4130",
"d  c #BF4731",
"f  c #BF4831",
"g  c #95642C",
"h  c #91692C",
"j  c #9B6B2D",
"k  c #B47031",
"l  c #C0462E",
"z  c #C0482F",
"x  c #C04732",
"c  c #C04830",
"v  c #C75530",
"b  c #C95531",
"n  c #CB5C31",
"m  c #CF622F",
"M  c #D0612F",
"N  c #C9752F",
"B  c #DD7C2F",
"V  c #CE6232",
"C  c #C16830",
"Z  c #CD6C35",
"A  c #D06233",
"S  c #D46C33",
"D  c #C77432",
"F  c #C97531",
"G  c #CE7932",
"H  c #DB7531",
"J  c #D57934",
"K  c #DE7B32",
"L  c #E07B33",
"P  c #BF882E",
"I  c #C28630",
"U  c #D48233",
"Y  c #DD8634",
"T  c #D28C31",
"R  c #DE8B37",
"E  c #DE8D39",
"W  c #D79034",
"Q  c #DC9232",
"!  c #DF9A33",
"~  c #DE903A",
"^  c #E5912F",
"/  c #E38633",
"(  c #E98633",
")  c #E58A33",
"_  c #E39433",
"`  c #EC9434",
"'  c #E29B33",
"]  c #EC9835",
"[  c #E0903A",
"{  c #EC9538",
"}  c #F09336",
"|  c #F29A33",
" . c #E4A236",
".. c #F4A135",
"X. c #FDAE35",
"o. c #FDAE38",
"O. c #FFAE38",
"+. c #EBB73D",
"@. c #EFB43E",
"#. c #FCB033",
"$. c #FEB034",
"%. c #FDB836",
"&. c #FDBA37",
"*. c #FCB038",
"=. c #FCB738",
"-. c #FDBD3B",
";. c #EEC23D",
":. c #F0C23B",
">. c #FCC43B",
",. c #FFC03C",
"<. c #FEC43E",
"1. c #FEC63F",
"2. c #FDCF3E",
"3. c #FDD83F",
"4. c #F0B541",
"5. c #FCCF40",
"6. c #FFCE41",
"7. c #FDD343",
"8. c #FFD741",
"9. c #FDD943",
"0. c #FFD944",
"q. c #FFD946",
/* pixels */
"@ @ # & & & & & % & & & % $   @ @ . .   @ . # @   % & % & & + % % & % % . ",
"@   # & & & & % & + & & j T _ ` ` { ` ` ` ` v e w & & % % % & & & & & % . ",
". @ X % % % % & & 6 g k T ] ......| ....| ../ J J w 9 2 % & % % & % % X . ",
"X X # % @ $ $ o . r X.X.K K X.X.X.X.X.#.X.X.X.X.X.f f w $ $ # $ X # # # # ",
"& & % .       # *.Q J X.X.X.X.X.X.X.O.o.X.X.X.X.X.X.A t z #   @ # @ . . & ",
"% & # # .   : I U J ] #.X.X.X.X.X.X.X.#.X.X.X.6.2.;. .G s w < #   #   . & ",
"& % $     : 0 X.H / X.X.X.O.X.X.X.X.X.X.X.X.=.7.9.9.,. .V c 9 - # # @ # & ",
"& & %     I X.l X.X.X.X.X.X.X.$.X.$.X.X.X.X.9.9.3.3.0.:.X.c t x @ @ @ # & ",
"& % O   @ I X.f X.X.X.X.X.X.X.x K { x K <.0.0.0.9.9.-. .X.f t i . @ # . + ",
"% & O @ @ P X.d X.X.X.X.X.$.X.f B } c R 7.8.9.8.9.2.&.' $.z t f . # # @ & ",
"& % $ + 3 W X.A X.X.X.O.| ` ` f S / u J @.+.5.0.9.$.$.' O.V p f = X . # & ",
"& & o 3 O.F V X.X.X.X.X.m c i c u l u u x u 4.<.X.X.X.X.X.X.D f l = @ @ & ",
"& & o 3 X.F m X.X.X.X.X./ V i f d l f f z u V _ #.X.X.X.X.X.D d x = @ . % ",
"% & % 3 O.F M X.X.X.X.X.X.K f u u l u f z u f K X.X.X.X.X.X.F f x = @ . % ",
"o o o 4 X.F V X.O.X.X.X.X.K i u [ 3.0.Z f u f K X.X.X.X.X.X.F i l - % # # ",
"o   . 6 X.F V X.O.X.X.X.X./ d d E 9.9.Z f f c K X.X.X.X.X.X.F f d > & % @ ",
"@ @ # 7 X.F V $.X.X.X.X.-.[ c f Z [ E v u u n ) X.X.X.X.X.X.F f f : & % # ",
"@   # 7 X.F V X.X.X.X.&.7.~ d f c l c l u u ` $.X.X.X.X.X.X.F u f > & % # ",
"# . % 7 X.F V X.X.X.&.9.8.[ f f u f x z d l } X.X.X.X.X.$.X.F f u > % % # ",
"  . . 6 X.F A X.X.-.7.9.9.E f f V K K b x d n ) X.X.X.X.X.$.F f f > % % . ",
"@ @ X 7 X.F M X.<.2.9.9.0.E d d K *.X.V l f u K X.X.X.X.X.X.F f u > % % . ",
". # # 7 #.F A #.9.9.9.8.0.R f f L $.X.V f u c L X.X.X.X.X.X.F u l > & % # ",
"@ @ $ 7 #.F V X.9.9.9.9.5.K c u f x f f u z f B $.X.$.O.X.X.N f x > % %   ",
"@ @ X 7 X.F M X.9.9.9.<.K b c f f c f u c c S ] X.X.X.X.X.X.F f x , % % . ",
"# # . 7 X.J H X.3.3.9.X.M d d f u d f f x x ` X.X.X.X.X.X.X.G l x > & %   ",
". X # $ % P X.f X.X.X.X.X.X.X.f K ] f B X.X.$.*.X.X.X.' X.x s d X X X # X ",
"& & $   @ I #.f #.X.X.X.X.X.X.f K ` f K X.X.X.X.O.X.X.! #.u s u . . . @ & ",
"& & % @ @ I X.f X.X.X.X.X.X.X.V ) | V ( O.X.#.X.X.X.X.! #.u s u @ # @ . & ",
"% & O     I $.l X.X.X.X.X.X.X.X.X.X.X.X.X.X.X.X.X.X.X.' #.c s f . @ # . % ",
"& & %   @ : 0 O.B / X.X.X.X.$.X.X.X.X.X.#.X.X.X.X.X.X.' V f q = @ . @ @ + ",
"& % # . @ . ; r Q U Y X.X.X.X.X.X.X.X.X.X.$.X.X.X.! U C t 8 = # # # @ @ & ",
"% & % @ @ . @   X.Q H X.X.X.X.X.X.X.X.X.X.X.X.X.X.X.A y z @ #   . . . . & ",
"% & % . . # @ @ . r &.X.K B X.X.X.X.X.X.X.X.X.X.O.u f w . @ . # . . . # % ",
"& % %   .   @ . @ * 5 9 W X.X.X.X.X.X.X.X.X.L m V 1 - * . . @ @ @ # # @ & ",
"& & . . @ # # @   . # . h T ^ ` ` ` ` ` ` ` a e w # . @   #   . # @ . @ & ",
"& % X . #   #   # # . # o   % % & % & % & % % & % #   @ #   # # # # # @ & ",
"% $ X o # # . $ $ . $ # . $ % # $ $ O % $ % # % X # # $ # # X . # X # # X "
};
