/* XPM */
static char *_278701521034cec803c4edd85deb96fwHcva2r22zm3W7t8[] = {
/* columns rows colors chars-per-pixel */
"44 44 145 2 ",
"   c #070D1E",
".  c #090D1E",
"X  c #0E101F",
"o  c #14131E",
"O  c #18171F",
"+  c #261A1E",
"@  c #371F1B",
"#  c #070D20",
"$  c #090D20",
"%  c #0E1021",
"&  c #161523",
"*  c #181523",
"=  c #151628",
"-  c #2B1923",
";  c #361C24",
":  c #3A1D23",
">  c #15263A",
",  c #362221",
"<  c #3D2324",
"1  c #2B273A",
"2  c #242C3F",
"3  c #2B2A3E",
"4  c #352B3C",
"5  c #392C3D",
"6  c #3C323B",
"7  c #723D1E",
"8  c #4E2E24",
"9  c #572727",
"0  c #512D24",
"q  c #56282A",
"w  c #42323C",
"e  c #4D303B",
"r  c #5C3337",
"t  c #50323C",
"y  c #5C3239",
"u  c #652B27",
"i  c #6A2F27",
"p  c #642B29",
"a  c #643521",
"s  c #6C3029",
"d  c #7B3B22",
"f  c #613437",
"g  c #613439",
"h  c #793836",
"j  c #675F2E",
"k  c #695F2A",
"l  c #694337",
"z  c #614A3D",
"x  c #724434",
"c  c #66602D",
"v  c #68602F",
"b  c #252B43",
"n  c #2A2B43",
"m  c #272E49",
"M  c #2B3046",
"N  c #2C354E",
"B  c #2C3553",
"V  c #2E3758",
"C  c #313756",
"Z  c #313955",
"A  c #323B5A",
"S  c #433F40",
"D  c #4A3A44",
"F  c #05537C",
"G  c #0A587F",
"H  c #3A4467",
"J  c #3A4468",
"K  c #404042",
"L  c #4A4747",
"P  c #705051",
"I  c #923B2B",
"U  c #943A2C",
"Y  c #9B3F2D",
"T  c #943D32",
"R  c #983F37",
"E  c #824222",
"W  c #9A5226",
"Q  c #964134",
"!  c #994135",
"~  c #914B3F",
"^  c #985230",
"/  c #B4472E",
"(  c #BE472F",
")  c #B1482B",
"_  c #BD492F",
"`  c #BF492F",
"'  c #BC5C24",
"]  c #BF5229",
"[  c #A44333",
"{  c #AB4333",
"}  c #B64630",
"|  c #BE4732",
" . c #BD4931",
".. c #BF4832",
"X. c #AD533D",
"o. c #B5503C",
"O. c #BF6020",
"+. c #BB6D37",
"@. c #BB6D3A",
"#. c #F6761F",
"$. c #C1472F",
"%. c #C0482F",
"&. c #C15E24",
"*. c #C55628",
"=. c #D05C29",
"-. c #C24730",
";. c #C04732",
":. c #C14732",
">. c #C14930",
",. c #C14931",
"<. c #C86627",
"1. c #C2632A",
"2. c #DB6C27",
"3. c #EA6A26",
"4. c #E76A28",
"5. c #EB7224",
"6. c #F67622",
"7. c #F87622",
"8. c #F97622",
"9. c #F67823",
"0. c #F87822",
"q. c #8F4B42",
"w. c #914B44",
"e. c #867547",
"r. c #8B6F61",
"t. c #867267",
"y. c #817565",
"u. c #9E825B",
"i. c #94946B",
"p. c #A9A47A",
"a. c #C19477",
"s. c #065381",
"d. c #3D8FAD",
"f. c #3E90AD",
"g. c #3F8FB0",
"h. c #2E92B6",
"j. c #3091BB",
"k. c #408FAE",
"l. c #0199DD",
"z. c #BFB089",
"x. c #DEB08C",
"c. c #E1B18C",
"v. c #D3C19B",
"b. c #ECD6A7",
"n. c #EBD4AB",
/* pixels */
"$ $ $ $ . * * * * * * * o Z H H H H H H J H H H H J H H H H & * & * * * * * . # $ X # $ ",
"$ $ $ $ . * * * * * * & & C H H H H H H H J H H H H H H H H & * * & & * * * % $ $ . $ $ ",
"$ $ . . . * * O * & M Z C H H H H H H H H H H J H H H H H J C C M & * & * * . # $ . . $ ",
". $ $ $ . o * * * * Z H J J H H H H H H H H H H H H H H H J H H C & * * * & . $ # #   $ ",
".   .   . & & & & * V H H H H H H J H H H H H H H H H H H H H H C * & * * & $ $ $ $   # ",
"  $ $     & & & & & C H H H H H H H J H H H H H H H H H H J H H C o % & & & $ $ . . .   ",
"* * & & & $ #   $   V H H H H H H J H H J H H J H H H H H H H J C . $ . # . # = * * * * ",
"* * & & &   # #   . B J H H H H H H H H H H H H H H H H H H J J C . .   $   o & * * * * ",
"* * & & o $ $   $   C H H H H H H J J J H H J J H H J J J J H J V   $ $     % = * * * & ",
"* & * * & $         b N N H H H J H J J H H J J H H J J H J N N b . $ $   $ & * & & & * ",
"* * & * &     : p p 1 b b B A V A A A A C A C A A A A C A A b b 1 p u ;     o * * * * * ",
"* * * * & . . p ( | 4 b b b b b b b b b b b b b m b b b m b b b 4 ( ( p   . o & * & & & ",
"& * * & o   $ p ( ` 5 b b b b b b b b b b b b b b b b b b b b b 4 _ | p   $ $ & & & * & ",
"* & & & &   . u ( | 4 b b b b b b b b b b b b n b b b b b b b n 5 ` ` p $ $ & & O * & * ",
"& * & & &   . p ,.%.4 b b b b b b b b b b b b n b b b n b b b b 5 `  .p $ # o & * & * * ",
"* & & * o     p ,.( 4 b b y | -.` ,. . .%.,. . . . . .`  .Q b b 4 ,.-.p . . o * o * & & ",
"& % & & & . . u ( ` 4 b b r  .`  .,. .,.%.`  .-.(  . .,.( ! b b 5 -.| u $ . X & & & % & ",
"    # #   * & 9 U U e 5 4 h  .| g r f ,.$. .( ,.h r r { $.[ 4 4 e I I q * * X .   . .   ",
"$ $ $ $   * < 8 0 0 Y  .,.%.%.-.b b b ,.` -.| ` 5 b b ! | ,. . .Y 0 8 0 8 * . X $ $ $ # ",
"%   . # # * O.9.7.6.) -. .,.| -.b b b  .| ,.,.%.4 b b R ,. .-.,.) 6.7.7.6.* $ . $ . .   ",
"  . # . , &.3.0.7.6./ | %.%.%.,.b b b %.$.%.%.%.5 b b ! |  .$.,.) 7.7.7.7.&.a $ . . $ # ",
"#   . + 7 #.#.9.7.7.! ! ! { %.%.b b b  . . .|  .5 b n ! %.} ! Q ! #.7.7.7.#.W @ # . . $ ",
". $ $ E 6.7.6.0.#.#.6 b 2 r ,.%.` %.` ,.-.-.,.-.| ` (  .-.! b b 6 6.6.7.7.7.6.' . $ $ . ",
"  . $ E 7.7.7.7.7.7.6 b b y  . .` $.-. . . .`  .$.( ,. .$.! b b 6 7.6.7.7.7.#.] # . #   ",
". $   d *.6.9.9.6.6.6 b b n y y y T $.X.X.X.X.X./ { r r r e b b 6 7.6.7.6.6.=.W $ $ . . ",
"$ . . p %.3.3.4.3.6.6 b n n b b b y  .c.c.c.c.x.o.R b b b b b b 6 #.3.3.3.3.) I . $ . . ",
"  # . p ` %.-.-.%.3.6 b b b b b b y $.| $.| ` ` | ! b b b b b b 6 #.| ( | ,.-.U $   $ $ ",
". .   p ` ,. .%. .3.^ x x x w n b 3 4 4 4 4 4 4 4 3 b b n x x x ^ 7.` $.` %.| U . . $ $ ",
"% & & s ( ( %.|  .3.6.6.7.#.l b b b b b b b b b b b b 2 6 7.6.7.6.6.` -.|  .-.U & & & % ",
"& & & s  .| ,. .( 3.6.#.7.6.x m b b b b b b b b b b b 3 6 6.6.6.7.6.$.(  .-. .U & & & & ",
"& & * u -.( ,.,.$.3.7.7.6.7.2.1.1.1.1.1.1.1.<.1.1.1.1.1.<.7.0.7.9.7.,. .%.` -.T * = O & ",
"* & * s ( | ,.( $.4.6.7.6.7.9.6.6.7.#.#.6.6.6.7.7.7.7.7.7.6.9.7.7.6.,.-. .%.,.U * * * & ",
"& & * s  . .-. .,.3.9.7.7.7.7.6.6.7.6.7.7.6.7.7.7.7.7.7.9.7.7.9.6.7.| | | -. .T * * * & ",
"* * * * <  .-. .,.4.7.9.6.7.6.9.9.6.6.7.7.#.7.6.7.7.7.7.7.7.6.6.7.7.( -.-.-.p & * * & * ",
"= & & * - p p I *.5.6.7.7.6.7.6.7.6.6.7.6.7.7.7.7.7.7.6.6.6.6.7.0.7.*.I p p : * * * & & ",
"* * & * o . . z +.@.5.7.7.7.6.6.7.6.6.7.7.6.6.6.7.7.6.7.7.7.7.7.5.+.+.z # $ & * * * * & ",
"* * * & &     s.l.l.@.6.7.9.6.9.6.7.6.7.#.7.6.6.7.6.7.6.7.6.6.7.+.l.l.F .   $ * & & O * ",
"* * & * &   $ F l.l.h.d.d.d.g.d.f.f.f.k.L 8 L d.k.d.d.d.d.d.d.f.j.l.l.F $   o * & & * * ",
"* * * * & #   D w.~ q.q.w.w.q.w.w.w.w.G > * > G P w.w.w.w.w.w.~ w.q.w.D .   % & & & & * ",
"% #   #   & % s | $.( ( | -.-.-.| | -.$   $ # . I } -.-.-.( ( -.%. . .i & & $ $ $ $   . ",
"$ $ $ $ $ * * s  .-.$. .-. .-. .|  .| . $ . .   U ( | | ` ` (  . .%. .s * * X . . . $ $ ",
"$ $ $ # $ = * r.c.e.j j c k u.x.l : ; . . . $ $ - ; ; x.a.j c c c v x.t.* * $ . . . $ $ ",
"# # $ $ $ * & y.n.p.i.i.i.i.z.n.K $ . . # $ . . . .   b.v.i.i.i.i.i.n.i.* * % $ $ $ $ $ ",
"# $ # $ # & = t.n.n.n.n.n.n.n.n.S   . $   . X         n.n.n.n.n.n.n.n.P * * . . . . $ $ "
};
