/* XPM */
static char *_b9f39ec221b4ef6ddcd53c2ddb1c9253uJtS5sIqnxzeoen[] = {
/* columns rows colors chars-per-pixel */
"44 44 128 2 ",
"   c #643D3E",
".  c #6F3C3B",
"X  c #733D3B",
"o  c #643D42",
"O  c #5D4754",
"+  c #5E4854",
"@  c #5E4558",
"#  c #5E4958",
"$  c #764A49",
"%  c #624753",
"&  c #624853",
"*  c #6B515A",
"=  c #76565B",
"-  c #79555B",
";  c #72595F",
":  c #6A5C6B",
">  c #715C61",
",  c #7C6261",
"<  c #6F6774",
"1  c #736775",
"2  c #736875",
"3  c #746578",
"4  c #766F7E",
"5  c #75707E",
"6  c #853F37",
"7  c #883F36",
"8  c #883F39",
"9  c #A03F2F",
"0  c #A53F30",
"q  c #864136",
"w  c #894036",
"e  c #854138",
"r  c #8A423A",
"t  c #9E4131",
"y  c #A1402F",
"u  c #BE472F",
"i  c #BE492F",
"p  c #A14130",
"a  c #BE4631",
"s  c #BF4830",
"d  c #BF573D",
"f  c #BE593D",
"g  c #C1472F",
"h  c #C0482F",
"j  c #C04731",
"k  c #C04830",
"l  c #C1573E",
"z  c #C0583F",
"x  c #854F45",
"c  c #884E4A",
"v  c #865046",
"b  c #965144",
"n  c #905B4E",
"m  c #8F5E50",
"M  c #A55F4A",
"N  c #AB5F4B",
"B  c #BF5640",
"V  c #BE5841",
"C  c #AC604B",
"Z  c #BF6447",
"A  c #A46B57",
"S  c #AD6F5B",
"D  c #B16953",
"F  c #AC7056",
"G  c #AD715A",
"H  c #856C6B",
"J  c #886C6B",
"K  c #836C72",
"L  c #827275",
"P  c #8C7372",
"I  c #87767E",
"U  c #977F7C",
"Y  c #997F7C",
"T  c #A47460",
"R  c #A47A69",
"E  c #A87A6A",
"W  c #C15741",
"Q  c #C16248",
"!  c #95817D",
"~  c #98807D",
"^  c #BF866A",
"/  c #C28566",
"(  c #C28569",
")  c #C48468",
"_  c #C58569",
"`  c #C5856A",
"'  c #C3856C",
"]  c #5B6985",
"[  c #5A6989",
"{  c #6C6D81",
"}  c #6E6C84",
"|  c #756E81",
" . c #6D758B",
".. c #757180",
"X. c #787580",
"o. c #7C7682",
"O. c #70748A",
"+. c #73788B",
"@. c #7D7B89",
"#. c #6C7892",
"$. c #747F91",
"%. c #777E91",
"&. c #787D91",
"*. c #797E92",
"=. c #7B7D94",
"-. c #797E94",
";. c #7B7F98",
":. c #817E8F",
">. c #887E89",
",. c #788093",
"<. c #7B8093",
"1. c #76839B",
"2. c #8B838E",
"3. c #918286",
"4. c #878491",
"5. c #898691",
"6. c #9795A2",
"7. c #9A94A2",
"8. c #9896A3",
"9. c #9B98A3",
"0. c #9198AA",
"q. c #9299AB",
"w. c #8B9BB2",
"e. c #8B9BB5",
"r. c #8C9AB5",
"t. c #8B9CB6",
"y. c #8C9CB6",
"u. c #8C9BB8",
/* pixels */
"( ( _ ^ ( ( ( ( / 6.R ( _ _ _ ( ( _ / / ( _ ( ( ^ ^ _ ( / ( ( _ R y._ ( ^ / ( ( ( ( ( ( ",
"s j g i k k u C _ 7.2 q h u u s i j i k a j i i j u a k i s k G R y.- y i h k i h k k i ",
"s u i s s s u N ( 7.2 e s s k u s j i k a k s k i j k u i h i G R r.- t k s j i s k s k ",
"u j i s u j s C ( 7.1 q h h k s i k s h h s s s a u s i s s a G R e.- y j k i i s k k s ",
"h i u u i i a C ( 7.1 e s s i s h k h h s s s s i s s s s s s G E u.- t s j j u a a s k ",
"k u s i k h j N ^ 7.2 q s h k s s s h j i h k k k k k k k a h F E e.- 9 j j i i a s k s ",
"k s i s i k j N ' 6.2 e s s s s i g k i s k s s k s s s s k s S R e.- t h j a g k s s k ",
"j s k j h h h N ( 7.< 7 j k s s k j j h a k k k k k k k k k j G R u.- 0 s h u i j a s k ",
"X X X X X X X m / 7.3 X X X X . X X X X . X X X X X X X X X X A R w.= . X . X X X X X X ",
"& + + + O O + ; H 0.} + @ O + O + & & + + + + + + + O O O O # , I e.: @ O O O % + + & + ",
"H H J H H H H H J 3.P H J H H J +.L H K J H J J J H H H H H J H P Y P H J H X.o.H H J H ",
"^ ( ( ( ( ( ( ( / ( ( ( ( ^ ( / 6.E ( ( ' ( ( ( ( ( ( ( ( / ^ ^ ( ( / _ ^ ^ U Y ( ( / ^ ",
"d z z z z z z z z z z z z z D ( 7.K b l d W z z z z z z d z z z z z d z Q / ~ :.v f f W ",
"u i i h g j k h k h k k k u M ( 8.2 q i k k k k k k k k j a s j a k i s z ( Y ;.X s i h ",
"k s s s g k k j k h k k k i C ^ 7.2 w i u k h j j k h k k s h k j i s h z / Y -.X s k k ",
"k s i s j u s i s s k s j g N ( 7.1 q s s s s i s s k a i s u k k k i h z ( ! <.X i k k ",
"j k s s h k k k k k k k s s C ( 7.2 6 k a k s k h k i k k s s k h k k j z ' U *.X u a u ",
"g k i i j k k u k k k k s a C ( 6.1 e s h i k k h j k s k h i h k j h k d / Y *.X g a u ",
"i i g s h s i s i a k k s i C ( 7.3 e i s i s s s s s s s u k k i u i k z ( U $.X i a i ",
"X X X X X X X X X X X X X X n / 6.1 X X X X X X X X X X X X X X X X X X c ( Y *.X X X . ",
"O + O O O + + + + + O + + O > J 0.{ + + + O @ O O O O + & O + + O O % + * J 4.1.O O @ @ ",
"4 5  . .4 4 5 4 5 5 5 5 4 5 5 4 7.@.5 5 5 5 ..| O.#.5 4 5 ....5 | 4 ..| 5 4 2.5.5 5 4 4 ",
"_ _ 6.! _ / ( / ( / ( ( ( ( ( ( / ( ( ( ( ( _ ( Y 7.( _ ^ ( ( / ( / ( _ ^ ( ( / ( ( ( ( ",
"Z ( 8.@.b l z l z l l z z W d f W B z z z z Q ( Y w.x W d z z z l z d z z z z z z z W z ",
"W / 7.-.q s s a s s i s s k s s s k s g u h d ) U w.X i k i s g k i s i s j j k s h s s ",
"V ( 6.*.e a k i k h j h k h s s s u s u h i l / Y w.X s s s s s s s k i s a i u a s a s ",
"d ( 7.*.e i k k k j k k k h j k k k h h i s l _ U e.X k s h k a s h i g k s k s j s a s ",
"l ( 7.,.7 s s k k h s i j i i s k k a j s k z ( ~ r.X a h i k h i h a j s h u j k s a a ",
"f ^ 9.-.e k k k s a i u k s a j j i s k i u W ( ~ t.X a h i s j s s i i s s j i k k k s ",
"W ( 6.<.8 s s u s k s a s s s s s k s i s a d / U t.X k i h h i s s s s s s s k s s k k ",
"b ^ 7.<.X e e e e e e e e 6 r 6 e 6 e 8 6 e r x 4.e.X 6 6 6 6 e e q w e q e 6 e e e e q ",
"* H 0.<.% O + + O O O O O O + + + & + + + + + O 1.e.+ @ + # + O + @ O O O O & O + + + & ",
"4 5 7.5.4 5 5 5 4 4 5 ..5  . .5 ..4 5 4 ....5 5 5.7.....5 5 ..| 5 5 5 O.#.5 5 | ..4 5 ..",
"/ ( ( ( ^ ^ / ( ( ( ( ( ( ~ ~ / _ ( ( ( ( ( ( _ ( ' ( / ^ ( ( ( _ _ ^ U 6.' ^ ^ ^ ' / ( ",
"C C C C C C N N N N M D _ ~ >.n C C C C C C C C N C C N M N C C C C _ U 0.n M C N C C C ",
"h a k h i i k a i u h W _ ~ +.X j s u s h s k k i a i a s s s s i g / Y w.X t s i a u u ",
"h k i j j i j i j a s W ( ~ <.X s s i i i s k i s s s k a h k s i a / ~ t.X y i h i s s ",
"k k s s k u j k i i u z ( ~ $.X g k u a j k k s k u h k s s k j u i / ! e.X t s a i s h ",
"j j u k i g s s s j g z ' U *.X h h s k s k s k k k k k h k h s s a ( U u.X 0 a j i s j ",
"h k k k j i s k s u a d ^ U -.X i u i k g s s s s k a i s h k k i s ( ! e.X 9 a k u i u ",
"s a s a a s k s s k k d ( ~ <.X j j j s s k s s h k h j g g u u g i _ ~ t.X p s s s k a ",
"e q e e r 8 6 6 q e e b ( ~ <.. q 6 6 6 e e e e e e e e e 6 6 6 q 7 _ >.t.X e e e e e w ",
"o o o o o o o   o o o $ T 3.<.o     o o o o o o o o o o o o   % o o T 3.e.o o o   o o o ",
"] [ [ ] ] [ ] [ ] ] ] ] [ 1.1.[ ] [ ] ] [ ] ] ] ] ] ] ] ] ] ] ] [ { [ 1.e.] ] ] ] [ ] ] "
};
